<mxfile host="Electron" modified="2025-07-02T13:56:23.928Z" agent="Mozilla/5.0 (Windows NT 10.0; Win64; x64) AppleWebKit/537.36 (KHTML, like Gecko) draw.io/24.1.0 Chrome/120.0.6099.109 Electron/28.1.0 Safari/537.36" etag="x3z9ERBNOl1Ul1ZTfdaH" version="24.1.0" type="device">
  <diagram name="第 1 页" id="m4WlvHM6WWsqlOekGDqn">
    <mxGraphModel dx="988" dy="669" grid="1" gridSize="10" guides="1" tooltips="1" connect="1" arrows="1" fold="1" page="1" pageScale="1" pageWidth="827" pageHeight="1169" math="0" shadow="0">
      <root>
        <mxCell id="0" />
        <mxCell id="1" parent="0" />
        <mxCell id="if2pO5nYYn-G92Cne09C-8" style="rounded=0;orthogonalLoop=1;jettySize=auto;html=1;entryX=0.5;entryY=0;entryDx=0;entryDy=0;exitX=0.5;exitY=1;exitDx=0;exitDy=0;endArrow=none;endFill=0;" edge="1" parent="1" source="if2pO5nYYn-G92Cne09C-1" target="if2pO5nYYn-G92Cne09C-2">
          <mxGeometry relative="1" as="geometry" />
        </mxCell>
        <mxCell id="if2pO5nYYn-G92Cne09C-9" style="rounded=0;orthogonalLoop=1;jettySize=auto;html=1;exitX=0.5;exitY=1;exitDx=0;exitDy=0;endArrow=none;endFill=0;" edge="1" parent="1" source="if2pO5nYYn-G92Cne09C-1" target="if2pO5nYYn-G92Cne09C-3">
          <mxGeometry relative="1" as="geometry" />
        </mxCell>
        <mxCell id="if2pO5nYYn-G92Cne09C-10" style="rounded=0;orthogonalLoop=1;jettySize=auto;html=1;exitX=0.5;exitY=1;exitDx=0;exitDy=0;entryX=0.5;entryY=0;entryDx=0;entryDy=0;endArrow=none;endFill=0;" edge="1" parent="1" source="if2pO5nYYn-G92Cne09C-1" target="if2pO5nYYn-G92Cne09C-4">
          <mxGeometry relative="1" as="geometry" />
        </mxCell>
        <mxCell id="if2pO5nYYn-G92Cne09C-11" style="rounded=0;orthogonalLoop=1;jettySize=auto;html=1;exitX=0.5;exitY=1;exitDx=0;exitDy=0;entryX=0.5;entryY=0;entryDx=0;entryDy=0;endArrow=none;endFill=0;" edge="1" parent="1" source="if2pO5nYYn-G92Cne09C-1" target="if2pO5nYYn-G92Cne09C-5">
          <mxGeometry relative="1" as="geometry" />
        </mxCell>
        <mxCell id="if2pO5nYYn-G92Cne09C-12" style="rounded=0;orthogonalLoop=1;jettySize=auto;html=1;exitX=0.5;exitY=1;exitDx=0;exitDy=0;endArrow=none;endFill=0;" edge="1" parent="1" source="if2pO5nYYn-G92Cne09C-1" target="if2pO5nYYn-G92Cne09C-6">
          <mxGeometry relative="1" as="geometry" />
        </mxCell>
        <mxCell id="if2pO5nYYn-G92Cne09C-13" style="rounded=0;orthogonalLoop=1;jettySize=auto;html=1;exitX=0.5;exitY=1;exitDx=0;exitDy=0;endArrow=none;endFill=0;" edge="1" parent="1" source="if2pO5nYYn-G92Cne09C-1" target="if2pO5nYYn-G92Cne09C-7">
          <mxGeometry relative="1" as="geometry" />
        </mxCell>
        <mxCell id="if2pO5nYYn-G92Cne09C-1" value="学生信息" style="rounded=0;whiteSpace=wrap;html=1;" vertex="1" parent="1">
          <mxGeometry x="470" y="70" width="120" height="60" as="geometry" />
        </mxCell>
        <mxCell id="if2pO5nYYn-G92Cne09C-2" value="&lt;u&gt;学号&lt;/u&gt;" style="ellipse;whiteSpace=wrap;html=1;" vertex="1" parent="1">
          <mxGeometry x="140" y="220" width="120" height="60" as="geometry" />
        </mxCell>
        <mxCell id="if2pO5nYYn-G92Cne09C-3" value="姓名&lt;span style=&quot;white-space: pre;&quot;&gt;&#x9;&lt;/span&gt;" style="ellipse;whiteSpace=wrap;html=1;" vertex="1" parent="1">
          <mxGeometry x="270" y="220" width="120" height="60" as="geometry" />
        </mxCell>
        <mxCell id="if2pO5nYYn-G92Cne09C-4" value="班级" style="ellipse;whiteSpace=wrap;html=1;" vertex="1" parent="1">
          <mxGeometry x="400" y="220" width="120" height="60" as="geometry" />
        </mxCell>
        <mxCell id="if2pO5nYYn-G92Cne09C-5" value="成绩" style="ellipse;whiteSpace=wrap;html=1;" vertex="1" parent="1">
          <mxGeometry x="540" y="220" width="120" height="60" as="geometry" />
        </mxCell>
        <mxCell id="if2pO5nYYn-G92Cne09C-6" value="学籍状态" style="ellipse;whiteSpace=wrap;html=1;" vertex="1" parent="1">
          <mxGeometry x="670" y="220" width="120" height="60" as="geometry" />
        </mxCell>
        <mxCell id="if2pO5nYYn-G92Cne09C-7" value="性别" style="ellipse;whiteSpace=wrap;html=1;" vertex="1" parent="1">
          <mxGeometry x="800" y="220" width="120" height="60" as="geometry" />
        </mxCell>
      </root>
    </mxGraphModel>
  </diagram>
</mxfile>
